# xmcd CD database file
#
# Track frame offsets:
#	150
#	3070
#	23979
#	40265
#	55369
#	60340
#	74671
#	94913
#	111226
#	121104
#	147362
#	160558
#
# Disc length: 2396 seconds
#
# Revision: 2
# Processed by: cddbd v1.5.2PL0 Copyright (c) Steve Scherf et al.
# Submitted via: CDex 1.70beta3
#
DISCID=9b095a0c
DTITLE=akiko - A White Album
DYEAR=2007
DGENRE=Jazz
TTITLE0=Auld Lang Syne
TTITLE1=Santa Claus Is Coming To Down
TTITLE2=Jingle Bell Rock
TTITLE3=Santa Baby
TTITLE4=The First Noel
TTITLE5=Skeigh Ride
TTITLE6=Let It Snow! Let It Snow! Let It Snow!
TTITLE7=Winter Wonderland
TTITLE8=12月25日の朝。
TTITLE9=The Choristmas Song
TTITLE10=I Saw Mammy Kissed To Santa Claus
TTITLE11=Santa Claus Is Coming To Town -Remix-
EXTD=YEAR: 2007
EXTT0=
EXTT1=
EXTT2=
EXTT3=
EXTT4=
EXTT5=
EXTT6=
EXTT7=
EXTT8=
EXTT9=
EXTT10=
EXTT11=
PLAYORDER=
